<?xml version="1.0" encoding="UTF-8" standalone="no"?>
<svg
   xmlns:dc="http://purl.org/dc/elements/1.1/"
   xmlns:cc="http://creativecommons.org/ns#"
   xmlns:rdf="http://www.w3.org/1999/02/22-rdf-syntax-ns#"
   xmlns:svg="http://www.w3.org/2000/svg"
   xmlns="http://www.w3.org/2000/svg"
   xmlns:sodipodi="http://sodipodi.sourceforge.net/DTD/sodipodi-0.dtd"
   xmlns:inkscape="http://www.inkscape.org/namespaces/inkscape"
   width="210mm"
   height="297mm"
   viewBox="0 0 210 297"
   version="1.1"
   id="svg8"
   inkscape:version="1.0 (4035a4f, 2020-05-01)"
   sodipodi:docname="heart_sphere.svg">
  <defs
     id="defs2" />
  <sodipodi:namedview
     id="base"
     pagecolor="#ffffff"
     bordercolor="#666666"
     borderopacity="1.0"
     inkscape:pageopacity="0.0"
     inkscape:pageshadow="2"
     inkscape:zoom="0.675"
     inkscape:cx="275.82655"
     inkscape:cy="279.76918"
     inkscape:document-units="mm"
     inkscape:current-layer="layer1"
     inkscape:document-rotation="0"
     showgrid="true"
     inkscape:window-width="1252"
     inkscape:window-height="782"
     inkscape:window-x="0"
     inkscape:window-y="23"
     inkscape:window-maximized="0">
    <inkscape:grid
       type="xygrid"
       id="grid833" />
  </sodipodi:namedview>
  <metadata
     id="metadata5">
    <rdf:RDF>
      <cc:Work
         rdf:about="">
        <dc:format>image/svg+xml</dc:format>
        <dc:type
           rdf:resource="http://purl.org/dc/dcmitype/StillImage" />
        <dc:title />
      </cc:Work>
    </rdf:RDF>
  </metadata>
  <g
     inkscape:label="Layer 1"
     inkscape:groupmode="layer"
     id="layer1">
    <path
       style="fill:none;stroke:#000000;stroke-width:0.529167;stroke-linecap:butt;stroke-linejoin:miter;stroke-miterlimit:4;stroke-dasharray:none;stroke-opacity:1"
       d="m 42.333333,100.54167 c 0,-21.16667 0,-84.66667 21.166667,-84.66667 21.166666,0 21.166666,84.66667 42.33333,84.66667 21.16667,0 21.16667,-42.333336 42.33333,-42.333336 21.16667,0 21.16667,21.166666 21.16667,42.333336 0,42.33333 -42.33333,42.33333 -63.5,42.33333 -21.166664,0 -63.499997,0 -63.499997,-42.33333 z"
       id="path835"
       sodipodi:nodetypes="ccccccc" />
    <path
       style="fill:#000000;stroke-width:0.264583;stroke-dasharray:0.529167, 0.264583"
       id="path837"
       sodipodi:type="arc"
       sodipodi:cx="63.5"
       sodipodi:cy="15.875001"
       sodipodi:rx="2.6458333"
       sodipodi:ry="2.6458333"
       sodipodi:start="0.31047837"
       sodipodi:end="0.28595474"
       sodipodi:arc-type="slice"
       d="m 66.019329,16.683341 a 2.6458333,2.6458333 0 0 1 -3.312208,1.715898 2.6458333,2.6458333 0 0 1 -1.736173,-3.301626 2.6458333,2.6458333 0 0 1 3.29092,-1.756382 2.6458333,2.6458333 0 0 1 1.776525,3.28009 L 63.5,15.875001 Z" />
    <path
       style="fill:#000000;stroke-width:0.264583;stroke-dasharray:0.529167, 0.264583"
       id="path839"
       sodipodi:type="arc"
       sodipodi:cx="105.83334"
       sodipodi:cy="100.54166"
       sodipodi:rx="2.6458333"
       sodipodi:ry="2.6458333"
       sodipodi:start="0.31047837"
       sodipodi:end="0.28595474"
       sodipodi:arc-type="slice"
       d="m 108.35267,101.35 a 2.6458333,2.6458333 0 0 1 -3.31221,1.71589 2.6458333,2.6458333 0 0 1 -1.73617,-3.301622 2.6458333,2.6458333 0 0 1 3.29092,-1.756382 2.6458333,2.6458333 0 0 1 1.77653,3.280094 l -2.5384,-0.74632 z" />
    <path
       style="fill:#000000;stroke-width:0.264583;stroke-dasharray:0.529167, 0.264583"
       id="path841"
       sodipodi:type="arc"
       sodipodi:cx="148.16666"
       sodipodi:cy="58.208332"
       sodipodi:rx="2.6458333"
       sodipodi:ry="2.6458333"
       sodipodi:start="0.31047837"
       sodipodi:end="0.28595474"
       sodipodi:arc-type="slice"
       d="m 150.68599,59.016672 a 2.6458333,2.6458333 0 0 1 -3.31221,1.715898 2.6458333,2.6458333 0 0 1 -1.73618,-3.301626 2.6458333,2.6458333 0 0 1 3.29092,-1.756382 2.6458333,2.6458333 0 0 1 1.77653,3.28009 l -2.53839,-0.74632 z" />
    <path
       style="fill:#000000;stroke-width:0.264583;stroke-dasharray:0.529167, 0.264583"
       id="path843"
       sodipodi:type="arc"
       sodipodi:cx="105.83334"
       sodipodi:cy="142.875"
       sodipodi:rx="2.6458333"
       sodipodi:ry="2.6458333"
       sodipodi:start="0.31047837"
       sodipodi:end="0.28595474"
       sodipodi:arc-type="slice"
       d="m 108.35267,143.68334 a 2.6458333,2.6458333 0 0 1 -3.31221,1.7159 2.6458333,2.6458333 0 0 1 -1.73617,-3.30163 2.6458333,2.6458333 0 0 1 3.29092,-1.75638 2.6458333,2.6458333 0 0 1 1.77653,3.28009 l -2.5384,-0.74632 z" />
    <path
       style="fill:none;stroke:#000000;stroke-width:0.79375;stroke-linecap:butt;stroke-linejoin:miter;stroke-miterlimit:4;stroke-dasharray:none;stroke-opacity:1"
       d="M 63.499999,15.875001 C 63.5,68.791667 89.958333,100.54167 105.83333,100.54167"
       id="path845"
       sodipodi:nodetypes="cc" />
    <path
       style="fill:none;stroke:#000000;stroke-width:0.79375;stroke-linecap:butt;stroke-linejoin:miter;stroke-miterlimit:4;stroke-dasharray:none;stroke-opacity:1"
       d="m 148.16666,58.208333 c 0,26.458334 -21.16666,42.333337 -42.33333,42.333337"
       id="path847"
       sodipodi:nodetypes="cc" />
    <path
       style="fill:none;stroke:#000000;stroke-width:0.79375;stroke-linecap:butt;stroke-linejoin:miter;stroke-miterlimit:4;stroke-dasharray:none;stroke-opacity:1"
       d="m 105.83333,100.54167 c 10.58334,10.58333 10.58334,31.75 0,42.33333"
       id="path849"
       sodipodi:nodetypes="cc" />
    <path
       sodipodi:nodetypes="cc"
       id="path851"
       d="m 105.83333,100.54167 c -10.583331,10.58333 -10.583331,31.75 0,42.33333"
       style="fill:none;stroke:#000000;stroke-width:0.79375;stroke-linecap:butt;stroke-linejoin:miter;stroke-miterlimit:4;stroke-dasharray:0.79375, 1.5875;stroke-dashoffset:0;stroke-opacity:1" />
    <path
       style="fill:none;stroke:#000000;stroke-width:0.264583px;stroke-linecap:butt;stroke-linejoin:miter;stroke-opacity:1"
       d="M 21.166667,37.041667 H 190.49999"
       id="path853" />
    <path
       style="fill:none;stroke:#000000;stroke-width:0.264583px;stroke-linecap:butt;stroke-linejoin:miter;stroke-opacity:1"
       d="M 21.166667,79.375 H 190.49999"
       id="path855" />
    <path
       style="fill:none;stroke:#000000;stroke-width:0.264583px;stroke-linecap:butt;stroke-linejoin:miter;stroke-opacity:1"
       d="M 21.166667,121.70833 H 190.49999"
       id="path857" />
    <text
       xml:space="preserve"
       style="font-style:normal;font-weight:normal;font-size:10.5833px;line-height:1.25;font-family:sans-serif;fill:#000000;fill-opacity:1;stroke:none;stroke-width:0.264583"
       x="74.083336"
       y="15.875001"
       id="text861"><tspan
         sodipodi:role="line"
         id="tspan859"
         x="74.083336"
         y="15.875001"
         style="font-style:normal;font-variant:normal;font-weight:normal;font-stretch:normal;font-size:7.05556px;font-family:sans-serif;-inkscape-font-specification:'sans-serif, Normal';font-variant-ligatures:normal;font-variant-caps:normal;font-variant-numeric:normal;font-variant-east-asian:normal;stroke-width:0.264583">w: p=4, gr=2</tspan></text>
    <text
       xml:space="preserve"
       style="font-style:normal;font-weight:normal;font-size:10.5833px;line-height:1.25;font-family:sans-serif;fill:#000000;fill-opacity:1;stroke:none;stroke-width:0.264583"
       x="158.74998"
       y="58.208332"
       id="text865"><tspan
         sodipodi:role="line"
         id="tspan863"
         x="158.74998"
         y="58.208332"
         style="font-style:normal;font-variant:normal;font-weight:normal;font-stretch:normal;font-size:7.05556px;font-family:sans-serif;-inkscape-font-specification:'sans-serif, Normal';font-variant-ligatures:normal;font-variant-caps:normal;font-variant-numeric:normal;font-variant-east-asian:normal;stroke-width:0.264583">x: p=3, gr=2</tspan></text>
    <text
       xml:space="preserve"
       style="font-size:7.05556px;line-height:1.25;font-family:sans-serif;-inkscape-font-specification:'sans-serif, Normal';stroke-width:0.264583"
       x="116.41667"
       y="111.125"
       id="text869"><tspan
         sodipodi:role="line"
         id="tspan867"
         x="116.41667"
         y="111.125"
         style="stroke-width:0.264583">y: p=2, gr=1</tspan></text>
    <text
       xml:space="preserve"
       style="font-size:7.05556px;line-height:1.25;font-family:sans-serif;-inkscape-font-specification:'sans-serif, Normal';stroke-width:0.264583"
       x="116.41667"
       y="153.45833"
       id="text873"><tspan
         sodipodi:role="line"
         id="tspan871"
         x="116.41667"
         y="153.45833"
         style="stroke-width:0.264583">z: p=1, gr=0</tspan></text>
  </g>
</svg>
