<?xml version="1.0" encoding="UTF-8" standalone="no"?>
<svg
   xmlns:dc="http://purl.org/dc/elements/1.1/"
   xmlns:cc="http://creativecommons.org/ns#"
   xmlns:rdf="http://www.w3.org/1999/02/22-rdf-syntax-ns#"
   xmlns:svg="http://www.w3.org/2000/svg"
   xmlns="http://www.w3.org/2000/svg"
   xmlns:sodipodi="http://sodipodi.sourceforge.net/DTD/sodipodi-0.dtd"
   xmlns:inkscape="http://www.inkscape.org/namespaces/inkscape"
   sodipodi:docname="heart_sphere.svg"
   inkscape:version="1.0 (4035a4f, 2020-05-01)"
   id="svg8"
   version="1.1"
   viewBox="0 0 210 297"
   height="297mm"
   width="210mm">
  <defs
     id="defs2" />
  <sodipodi:namedview
     inkscape:window-maximized="0"
     inkscape:window-y="23"
     inkscape:window-x="0"
     inkscape:window-height="782"
     inkscape:window-width="1252"
     showgrid="true"
     inkscape:document-rotation="0"
     inkscape:current-layer="layer1"
     inkscape:document-units="mm"
     inkscape:cy="294.58399"
     inkscape:cx="252.12285"
     inkscape:zoom="0.675"
     inkscape:pageshadow="2"
     inkscape:pageopacity="0.0"
     borderopacity="1.0"
     bordercolor="#666666"
     pagecolor="#ffffff"
     id="base">
    <inkscape:grid
       id="grid833"
       type="xygrid" />
  </sodipodi:namedview>
  <metadata
     id="metadata5">
    <rdf:RDF>
      <cc:Work
         rdf:about="">
        <dc:format>image/svg+xml</dc:format>
        <dc:type
           rdf:resource="http://purl.org/dc/dcmitype/StillImage" />
        <dc:title></dc:title>
      </cc:Work>
    </rdf:RDF>
  </metadata>
  <g
     id="layer1"
     inkscape:groupmode="layer"
     inkscape:label="Layer 1">
    <path
       sodipodi:nodetypes="ccccccc"
       id="path835"
       d="m 0,63.5 c 0,-21.166667 0,-84.666667 21.166667,-84.666667 21.166666,0 21.166666,84.666667 42.333332,84.666666 C 84.666667,63.5 84.666667,21.166667 105.83333,21.166667 127,21.166667 127,42.333333 127,63.5 127,105.83333 84.666667,105.83333 63.499999,105.83333 42.333333,105.83333 0,105.83333 0,63.5 Z"
       style="fill:none;stroke:#000000;stroke-width:0.52916667;stroke-linecap:butt;stroke-linejoin:miter;stroke-opacity:1;stroke-miterlimit:4;stroke-dasharray:none" />
    <path
       d="m 23.685995,-20.358326 a 2.6458333,2.6458333 0 0 1 -3.312208,1.715898 2.6458333,2.6458333 0 0 1 -1.736172,-3.301626 2.6458333,2.6458333 0 0 1 3.290919,-1.756382 2.6458333,2.6458333 0 0 1 1.776525,3.28009 l -2.538393,-0.74632 z"
       sodipodi:arc-type="slice"
       sodipodi:end="0.28595474"
       sodipodi:start="0.31047837"
       sodipodi:ry="2.6458333"
       sodipodi:rx="2.6458333"
       sodipodi:cy="-21.166666"
       sodipodi:cx="21.166666"
       sodipodi:type="arc"
       id="path837"
       style="fill:#000000;stroke-width:0.264583;stroke-dasharray:0.529167, 0.264583" />
    <path
       d="m 66.019329,64.30834 a 2.6458333,2.6458333 0 0 1 -3.312208,1.715898 2.6458333,2.6458333 0 0 1 -1.736173,-3.301626 2.6458333,2.6458333 0 0 1 3.29092,-1.756382 2.6458333,2.6458333 0 0 1 1.776525,3.28009 L 63.5,63.5 Z"
       sodipodi:arc-type="slice"
       sodipodi:end="0.28595474"
       sodipodi:start="0.31047837"
       sodipodi:ry="2.6458333"
       sodipodi:rx="2.6458333"
       sodipodi:cy="63.5"
       sodipodi:cx="63.5"
       sodipodi:type="arc"
       id="path839"
       style="fill:#000000;stroke-width:0.264583;stroke-dasharray:0.529167, 0.264583" />
    <path
       d="m 108.35266,21.975006 a 2.6458333,2.6458333 0 0 1 -3.31221,1.715898 2.6458333,2.6458333 0 0 1 -1.73617,-3.301626 2.6458333,2.6458333 0 0 1 3.29092,-1.756382 2.6458333,2.6458333 0 0 1 1.77652,3.28009 l -2.53839,-0.74632 z"
       sodipodi:arc-type="slice"
       sodipodi:end="0.28595474"
       sodipodi:start="0.31047837"
       sodipodi:ry="2.6458333"
       sodipodi:rx="2.6458333"
       sodipodi:cy="21.166666"
       sodipodi:cx="105.83333"
       sodipodi:type="arc"
       id="path841"
       style="fill:#000000;stroke-width:0.264583;stroke-dasharray:0.529167, 0.264583" />
    <path
       d="m 66.019329,106.64167 a 2.6458333,2.6458333 0 0 1 -3.312208,1.7159 2.6458333,2.6458333 0 0 1 -1.736173,-3.30163 2.6458333,2.6458333 0 0 1 3.29092,-1.75638 2.6458333,2.6458333 0 0 1 1.776525,3.28009 L 63.5,105.83333 Z"
       sodipodi:arc-type="slice"
       sodipodi:end="0.28595474"
       sodipodi:start="0.31047837"
       sodipodi:ry="2.6458333"
       sodipodi:rx="2.6458333"
       sodipodi:cy="105.83333"
       sodipodi:cx="63.5"
       sodipodi:type="arc"
       id="path843"
       style="fill:#000000;stroke-width:0.264583;stroke-dasharray:0.529167, 0.264583" />
    <path
       sodipodi:nodetypes="cc"
       id="path845"
       d="M 21.166666,-21.166666 C 21.166667,31.75 47.625,63.5 63.499999,63.499999"
       style="fill:none;stroke:#000000;stroke-width:0.79375;stroke-linecap:butt;stroke-linejoin:miter;stroke-opacity:1;stroke-miterlimit:4;stroke-dasharray:none" />
    <path
       sodipodi:nodetypes="cc"
       id="path847"
       d="M 105.83333,21.166666 C 105.83333,47.625 84.666667,63.5 63.499999,63.499999"
       style="fill:none;stroke:#000000;stroke-width:0.79375;stroke-linecap:butt;stroke-linejoin:miter;stroke-opacity:1;stroke-miterlimit:4;stroke-dasharray:none" />
    <path
       sodipodi:nodetypes="cc"
       id="path849"
       d="m 63.499999,63.499999 c 10.583334,10.583334 10.583334,31.750001 0,42.333331"
       style="fill:none;stroke:#000000;stroke-width:0.79375;stroke-linecap:butt;stroke-linejoin:miter;stroke-opacity:1;stroke-miterlimit:4;stroke-dasharray:none" />
    <path
       style="fill:none;stroke:#000000;stroke-width:0.79375;stroke-linecap:butt;stroke-linejoin:miter;stroke-opacity:1;stroke-miterlimit:4;stroke-dasharray:0.79375,1.5875;stroke-dashoffset:0"
       d="m 63.5,63.5 c -10.583334,10.583334 -10.583334,31.750001 0,42.33333"
       id="path851"
       sodipodi:nodetypes="cc" />
    <path
       id="path853"
       d="M -21.166666,0 H 148.16666"
       style="fill:none;stroke:#000000;stroke-width:0.264583px;stroke-linecap:butt;stroke-linejoin:miter;stroke-opacity:1" />
    <path
       id="path855"
       d="M -21.166666,42.333333 H 148.16666"
       style="fill:none;stroke:#000000;stroke-width:0.264583px;stroke-linecap:butt;stroke-linejoin:miter;stroke-opacity:1" />
    <path
       id="path857"
       d="M -21.166666,84.666666 H 148.16666"
       style="fill:none;stroke:#000000;stroke-width:0.264583px;stroke-linecap:butt;stroke-linejoin:miter;stroke-opacity:1" />
    <text
       id="text861"
       y="-21.166666"
       x="31.75"
       style="font-style:normal;font-weight:normal;font-size:10.5833px;line-height:1.25;font-family:sans-serif;fill:#000000;fill-opacity:1;stroke:none;stroke-width:0.264583"
       xml:space="preserve"><tspan
         style="font-style:normal;font-variant:normal;font-weight:normal;font-stretch:normal;font-size:7.05556px;font-family:sans-serif;-inkscape-font-specification:'sans-serif, Normal';font-variant-ligatures:normal;font-variant-caps:normal;font-variant-numeric:normal;font-variant-east-asian:normal;stroke-width:0.264583"
         y="-21.166666"
         x="31.75"
         id="tspan859"
         sodipodi:role="line">w: p=4, gr=2</tspan></text>
    <text
       id="text865"
       y="21.166666"
       x="116.41666"
       style="font-style:normal;font-weight:normal;font-size:10.58329999999999949px;line-height:1.25;font-family:sans-serif;fill:#000000;fill-opacity:1;stroke:none;stroke-width:0.264583;"
       xml:space="preserve"><tspan
         style="font-style:normal;font-variant:normal;font-weight:normal;font-stretch:normal;font-size:7.05556px;font-family:sans-serif;-inkscape-font-specification:'sans-serif, Normal';font-variant-ligatures:normal;font-variant-caps:normal;font-variant-numeric:normal;font-variant-east-asian:normal;stroke-width:0.264583"
         y="21.166666"
         x="116.41666"
         id="tspan863"
         sodipodi:role="line">x: p=3, gr=2</tspan></text>
    <text
       id="text869"
       y="74.083336"
       x="74.083336"
       style="font-size:7.05556px;line-height:1.25;font-family:sans-serif;-inkscape-font-specification:'sans-serif, Normal';stroke-width:0.264583"
       xml:space="preserve"><tspan
         style="stroke-width:0.264583"
         y="74.083336"
         x="74.083336"
         id="tspan867"
         sodipodi:role="line">y: p=2, gr=1</tspan></text>
    <text
       id="text873"
       y="116.41666"
       x="74.083336"
       style="font-size:7.05556px;line-height:1.25;font-family:sans-serif;-inkscape-font-specification:'sans-serif, Normal';stroke-width:0.264583"
       xml:space="preserve"><tspan
         style="stroke-width:0.264583"
         y="116.41666"
         x="74.083336"
         id="tspan871"
         sodipodi:role="line">z: p=1, gr=0</tspan></text>
  </g>
</svg>
